# xmcd CD database file
#
# Track frame offsets:
#	150
#	30822
#	78183
#	102202
#	132475
#	153178
#	177054
#	199063
#	205266
#	231504
#	250990
#
# Disc length: 3769 seconds
#
# Revision: 0
# Processed by: cddbd v1.5.2PL0 Copyright (c) Steve Scherf et al.
# Submitted via: CDex 1.70beta2
#
DISCID=850eb70b
DTITLE=Espen Rud - Dobbeldans
DYEAR=2011
DGENRE=Jazz
TTITLE0=Så er jeg blakk, dessverre
TTITLE1=Krokaanitrall
TTITLE2=Dobbeldans
TTITLE3=En Tåkefantasi
TTITLE4=Spotted Catfish Blues
TTITLE5=Det laver ned
TTITLE6=Søndag morgen. Kram snø
TTITLE7=Floating In Clouds
TTITLE8=Julinatt på Sommerstø
TTITLE9=Den satt!
TTITLE10=Vals meg. Vals meg
EXTD=YEAR: 2011
EXTT0=
EXTT1=
EXTT2=
EXTT3=
EXTT4=
EXTT5=
EXTT6=
EXTT7=
EXTT8=
EXTT9=
EXTT10=
PLAYORDER=
